<?xml version="1.0" standalone="no"?>
<!DOCTYPE svg PUBLIC "-//W3C//DTD SVG 20010904//EN"
 "http://www.w3.org/TR/2001/REC-SVG-20010904/DTD/svg10.dtd">
<svg version="1.0" xmlns="http://www.w3.org/2000/svg"
 width="792.000000pt" height="792.000000pt" viewBox="0 0 792.000000 792.000000"
 preserveAspectRatio="xMidYMid meet">
<metadata>
Created by potrace 1.11, written by Peter Selinger 2001-2013
</metadata>
<g transform="translate(0.000000,792.000000) scale(0.100000,-0.100000)"
fill="#000000" stroke="none">
<path d="M1414 7774 c-50 -18 -117 -74 -149 -124 -39 -62 -56 -154 -41 -217 4
-13 8 -32 11 -44 13 -62 89 -142 155 -164 28 -10 31 -10 84 -19 21 -3 42 -9
47 -12 5 -3 9 -2 9 3 0 4 17 8 39 9 102 3 223 111 249 222 12 53 4 138 -16
184 -25 54 -91 122 -146 151 -51 26 -180 32 -242 11z"/>
<path d="M2311 7773 c-46 -16 -76 -38 -123 -88 -75 -79 -94 -207 -45 -307 56
-113 142 -170 266 -174 121 -3 203 39 266 136 96 150 39 342 -124 422 -59 29
-176 35 -240 11z"/>
<path d="M3060 7710 c-1 -32 -1 -327 0 -400 l0 -55 1829 0 1828 0 -1 113 c0
61 3 112 8 112 5 0 4 6 -1 13 -5 6 -8 63 -8 125 1 72 -3 113 -9 113 -6 1 -829
2 -1828 3 l-1818 2 0 -26z"/>
<path d="M1274 6832 l-31 -3 1 -2892 1 -2892 60 -2 c50 -2 128 -3 195 -2 8 0
47 0 85 0 39 0 77 0 85 0 8 0 42 0 75 0 33 0 67 0 75 0 8 0 65 0 125 0 61 0
117 0 125 0 8 0 71 0 140 -1 69 0 163 0 210 -1 47 0 90 0 95 0 6 -1 30 0 55 0
25 1 90 1 145 1 55 1 107 1 115 1 8 1 53 1 100 0 47 0 94 0 105 0 40 0 230 1
240 0 12 0 124 0 145 0 8 0 47 0 85 0 39 0 77 0 85 0 8 0 42 0 75 0 33 0 67 0
75 0 8 0 56 0 105 -1 50 0 128 -1 175 -1 47 0 90 0 95 0 6 -1 30 0 55 0 25 1
90 1 145 1 55 1 107 1 115 1 8 0 44 0 80 -1 36 0 103 0 150 -1 47 0 90 0 95 0
6 -1 30 0 55 0 25 1 90 1 145 1 55 1 107 1 115 1 8 0 44 0 80 -1 36 0 103 0
150 -1 47 0 90 0 95 0 6 -1 30 0 55 0 25 1 90 1 145 1 55 1 107 1 115 1 8 0
44 0 80 -1 36 0 103 0 150 -1 47 0 90 0 95 0 6 -1 30 0 55 0 47 2 188 2 355 0
55 0 107 0 115 0 8 0 47 1 86 0 l71 0 1 448 c1 246 2 454 2 461 0 11 0 202 0
237 0 8 -1 202 -3 430 -1 231 2 415 7 415 5 0 4 6 -1 13 -5 7 -7 183 -6 412 2
220 3 406 3 413 0 10 0 194 0 237 0 8 -1 202 -3 430 -1 228 2 415 6 415 5 0 5
6 1 12 -11 17 -11 628 0 628 5 0 4 6 -1 13 -5 7 -7 183 -6 412 2 220 3 407 3
415 0 8 -1 102 -2 208 -1 168 -3 192 -17 193 -64 2 -5403 3 -5427 1z m4962
-2899 l0 -2412 -20 -1 c-12 0 -28 0 -36 0 -8 -1 -24 -1 -35 0 -27 1 -87 1
-102 1 -7 -1 -19 -1 -25 -2 -7 0 -22 0 -33 1 -27 1 -87 1 -102 1 -7 -1 -19 -1
-25 -2 -7 0 -22 0 -33 1 -27 1 -87 1 -102 1 -7 -1 -19 -1 -25 -2 -7 0 -22 0
-33 1 -27 1 -87 1 -102 1 -7 -1 -19 -1 -25 -2 -7 0 -22 0 -33 1 -27 1 -87 1
-102 1 -7 -1 -19 -1 -25 -2 -7 0 -22 0 -33 1 -27 1 -87 1 -102 1 -7 -1 -19 -1
-25 -2 -7 0 -22 0 -33 1 -27 1 -87 1 -102 1 -7 -1 -19 -1 -25 -2 -7 0 -22 0
-33 1 -27 1 -87 1 -102 1 -7 -1 -19 -1 -25 -2 -7 0 -22 0 -33 1 -27 1 -87 1
-102 1 -7 -1 -19 -1 -25 -2 -7 0 -22 0 -33 1 -27 1 -87 1 -102 1 -7 -1 -19 -1
-25 -2 -7 0 -22 0 -33 1 -27 1 -87 1 -102 1 -7 -1 -19 -1 -25 -2 -7 0 -22 0
-33 1 -27 1 -87 1 -102 1 -7 -1 -19 -1 -25 -2 -7 0 -22 0 -33 1 -27 1 -87 1
-102 1 -7 -1 -19 -1 -25 -2 -7 0 -22 0 -33 1 -27 1 -87 1 -102 1 -18 -1 -39
-1 -65 -1 -13 0 -34 -1 -48 -3 -14 -2 -34 0 -46 4 -11 4 -27 4 -34 -1 -7 -4
-26 -4 -41 0 -16 5 -31 5 -34 0 -3 -5 -16 -6 -28 -1 -12 4 -35 5 -52 1 -16 -3
-45 -3 -62 1 -18 4 -33 3 -33 -1 0 -5 -13 -5 -30 0 -17 5 -32 5 -35 0 -3 -5
-16 -6 -28 -1 -12 4 -35 5 -52 1 -16 -3 -45 -3 -62 1 -18 4 -33 3 -33 -1 0 -5
-13 -5 -30 0 -17 5 -32 5 -35 0 -3 -5 -16 -6 -28 -1 -12 4 -35 5 -52 1 -16 -3
-45 -3 -62 1 -18 4 -33 3 -33 -1 0 -5 -13 -5 -30 0 -17 5 -32 5 -35 0 -3 -5
-16 -6 -28 -1 -12 4 -35 5 -52 1 -16 -3 -45 -3 -62 1 -18 4 -33 3 -33 -1 0 -5
-13 -5 -30 0 -17 5 -32 5 -35 0 -3 -5 -16 -6 -28 -1 -12 4 -35 5 -52 1 -16 -3
-45 -3 -62 1 -18 4 -33 3 -33 -1 0 -5 -13 -5 -30 0 -17 5 -32 5 -35 0 -3 -5
-16 -6 -28 -1 -12 4 -35 5 -52 1 -16 -3 -45 -3 -62 1 -18 4 -33 3 -33 -1 0 -5
-13 -5 -30 0 -17 5 -32 5 -35 0 -3 -5 -16 -6 -28 -1 -12 4 -35 5 -52 1 -16 -3
-45 -3 -62 1 -18 4 -33 3 -33 -1 0 -5 -13 -5 -30 0 -17 5 -32 5 -35 0 -3 -5
-15 -6 -27 -1 -12 4 -36 5 -53 1 -16 -3 -43 -3 -60 0 -16 3 -43 3 -60 0 -16
-3 -43 -3 -60 0 l-30 5 -1 2405 c-1 1323 0 2407 1 2410 2 3 1017 5 2257 5
l2253 0 1 -2412z"/>
<path d="M3818 5875 c-2 -2 -35 -6 -75 -9 -40 -4 -78 -8 -85 -11 -7 -2 -36 -6
-63 -9 -28 -3 -72 -12 -98 -20 -26 -8 -47 -12 -47 -10 0 2 -18 -3 -40 -11 -22
-8 -41 -14 -43 -13 -4 2 -140 -44 -177 -59 -175 -76 -417 -213 -480 -274 -8
-8 -37 -32 -65 -54 -85 -68 -243 -232 -308 -320 -128 -173 -207 -315 -277
-495 -27 -67 -59 -170 -54 -170 2 0 -3 -18 -11 -40 -8 -22 -12 -40 -10 -40 3
0 0 -11 -5 -25 -5 -14 -12 -46 -16 -72 -3 -27 -8 -57 -11 -68 -18 -81 -25
-435 -10 -550 4 -33 9 -78 12 -100 5 -50 12 -85 30 -155 8 -30 16 -66 19 -80
4 -23 19 -72 33 -110 3 -8 7 -20 8 -26 5 -22 89 -209 118 -264 137 -254 361
-505 613 -688 40 -28 77 -52 82 -52 6 0 12 -4 14 -8 7 -17 201 -119 308 -162
94 -38 274 -90 360 -105 19 -3 42 -8 50 -10 16 -4 51 -9 160 -22 81 -9 404 -8
485 2 33 4 71 8 85 10 49 6 105 16 130 22 14 4 32 7 40 8 81 10 404 128 480
175 8 5 37 21 65 36 56 30 217 137 255 170 14 12 57 48 95 81 73 62 165 162
248 268 26 33 51 65 55 70 8 10 94 147 125 200 71 120 148 318 191 490 23 96
30 129 43 240 10 73 9 430 0 500 -16 121 -24 169 -33 198 -3 11 -7 29 -9 40
-7 49 -59 209 -101 308 -46 108 -138 278 -158 291 -6 4 -7 8 -3 8 4 0 3 6 -3
13 -6 6 -38 50 -72 97 -119 163 -399 419 -565 517 -258 151 -518 239 -823 278
-46 6 -457 15 -462 10z m374 -469 c85 -10 182 -27 223 -37 22 -6 47 -13 55
-14 38 -9 148 -49 213 -78 336 -153 638 -464 782 -807 27 -64 61 -171 71 -220
3 -14 7 -32 9 -40 2 -8 7 -28 10 -45 2 -16 7 -41 10 -55 3 -14 8 -77 11 -140
l6 -115 -1593 0 -1594 0 1 50 c2 65 14 207 19 215 2 3 6 24 9 46 23 176 144
457 256 598 181 227 358 380 562 486 121 63 286 118 408 135 24 4 48 9 52 11
4 2 44 7 90 10 46 3 84 7 85 8 5 4 270 -2 315 -8z"/>
<path d="M1250 620 c-4 -3 -7 -111 -6 -240 l1 -235 2735 0 2735 0 1 238 c1
167 -2 237 -10 238 -37 4 -5449 3 -5456 -1z"/>
</g>
</svg>
